<svg xmlns="http://www.w3.org/2000/svg" xmlns:xlink="http://www.w3.org/1999/xlink" width="120" height="40" viewBox="0 0 120 40" fill="none">
<path d="M70.116 1.316L60.252 15.14L50.532 1.316L42.9 1.316L56.58 20.18L42.9 38.684L50.028 38.684L59.964 24.86L69.612 38.684L77.1 38.684L63.564 19.892L77.1 1.316L70.116 1.316ZM33.46 10.67L33.46 5.57L4.54 17.33L4.54 24.41L33.46 36.17L33.46 31.07L8.38 20.87L33.46 10.67ZM86.54 5.57L115.46 17.33L115.46 24.41L86.54 36.17L86.54 31.07L111.62 20.87L86.54 10.67L86.54 5.57Z" fill-rule="evenodd"  fill="#000000" >
</path>
</svg>
